REM DIRINDEX 1\6,1\2\7,1\2\8,1\2\9,1\3\10,1\3\11,1\4\12,1\4\13,1\4\14,1\5\15,1\5\16,1\5\17
REM DIRNAME cjc040,folder01,folder02,folder03,folder04,folder05,folder06,folder07,folder08,folder09,folder10,folder11,folder12,folder13,folder14,folder15,folder16
TITLE ""
FILE "P2Q_t2_0054-0071.mp3" MP3
  TRACK 01 AUDIO
    TITLE "7:cjc040_3988"
    INDEX 01 00:00:00
  TRACK 02 AUDIO
    TITLE "0:"
    INDEX 01 00:00:70
  TRACK 03 AUDIO
    TITLE "8:cjc040_3989"
    INDEX 01 00:01:54
  TRACK 04 AUDIO
    TITLE "0:"
    INDEX 01 00:03:04
  TRACK 05 AUDIO
    TITLE "9:cjc040_3990"
    INDEX 01 00:03:55
  TRACK 06 AUDIO
    TITLE "0:"
    INDEX 01 00:04:64
  TRACK 07 AUDIO
    TITLE "7:cjc040_3991"
    INDEX 01 00:06:41
  TRACK 08 AUDIO
    TITLE "0:"
    INDEX 01 00:07:56
  TRACK 09 AUDIO
    TITLE "8:cjc040_3992"
    INDEX 01 00:08:32
  TRACK 10 AUDIO
    TITLE "0:"
    INDEX 01 00:11:13
  TRACK 11 AUDIO
    TITLE "9:cjc040_3993"
    INDEX 01 00:11:70
  TRACK 12 AUDIO
    TITLE "0:"
    INDEX 01 00:13:12
  TRACK 13 AUDIO
    TITLE "7:cjc040_3994"
    INDEX 01 00:14:70
  TRACK 14 AUDIO
    TITLE "0:"
    INDEX 01 00:16:12
  TRACK 15 AUDIO
    TITLE "8:cjc040_3995"
    INDEX 01 00:16:73
  TRACK 16 AUDIO
    TITLE "0:"
    INDEX 01 00:20:02
  TRACK 17 AUDIO
    TITLE "9:cjc040_3996"
    INDEX 01 00:20:49
  TRACK 18 AUDIO
    TITLE "0:"
    INDEX 01 00:21:68
  TRACK 19 AUDIO
    TITLE "7:cjc040_3997"
    INDEX 01 00:23:57
  TRACK 20 AUDIO
    TITLE "0:"
    INDEX 01 00:25:01
  TRACK 21 AUDIO
    TITLE "8:cjc040_3998"
    INDEX 01 00:25:56
  TRACK 22 AUDIO
    TITLE "0:"
    INDEX 01 00:26:71
  TRACK 23 AUDIO
    TITLE "9:cjc040_3999"
    INDEX 01 00:27:49
  TRACK 24 AUDIO
    TITLE "0:"
    INDEX 01 00:28:70
  TRACK 25 AUDIO
    TITLE "7:cjc040_4000"
    INDEX 01 00:30:57
  TRACK 26 AUDIO
    TITLE "0:"
    INDEX 01 00:31:67
  TRACK 27 AUDIO
    TITLE "8:cjc040_4001"
    INDEX 01 00:32:47
  TRACK 28 AUDIO
    TITLE "0:"
    INDEX 01 00:33:46
  TRACK 29 AUDIO
    TITLE "9:cjc040_4002"
    INDEX 01 00:34:30
  TRACK 30 AUDIO
    TITLE "0:"
    INDEX 01 00:35:37
  TRACK 31 AUDIO
    TITLE "7:cjc040_4003"
    INDEX 01 00:37:16
  TRACK 32 AUDIO
    TITLE "0:"
    INDEX 01 00:38:47
  TRACK 33 AUDIO
    TITLE "8:cjc040_4004"
    INDEX 01 00:39:25
  TRACK 34 AUDIO
    TITLE "0:"
    INDEX 01 00:42:10
  TRACK 35 AUDIO
    TITLE "9:cjc040_4005"
    INDEX 01 00:42:65
  TRACK 36 AUDIO
    TITLE "0:"
    INDEX 01 00:44:22
  TRACK 37 AUDIO
    TITLE "7:cjc040_4006"
    INDEX 01 00:45:73
  TRACK 38 AUDIO
    TITLE "0:"
    INDEX 01 00:47:13
  TRACK 39 AUDIO
    TITLE "8:cjc040_4007"
    INDEX 01 00:47:68
  TRACK 40 AUDIO
    TITLE "0:"
    INDEX 01 00:49:16
  TRACK 41 AUDIO
    TITLE "9:cjc040_4008"
    INDEX 01 00:49:72
  TRACK 42 AUDIO
    TITLE "0:"
    INDEX 01 00:51:20
  TRACK 43 AUDIO
    TITLE "7:cjc040_4009"
    INDEX 01 00:53:02
  TRACK 44 AUDIO
    TITLE "0:"
    INDEX 01 00:54:13
  TRACK 45 AUDIO
    TITLE "8:cjc040_4010"
    INDEX 01 00:54:68
  TRACK 46 AUDIO
    TITLE "0:"
    INDEX 01 00:57:66
  TRACK 47 AUDIO
    TITLE "9:cjc040_4011"
    INDEX 01 00:58:42
  TRACK 48 AUDIO
    TITLE "0:"
    INDEX 01 00:59:63
  TRACK 49 AUDIO
    TITLE "7:cjc040_4012"
    INDEX 01 01:01:46
  TRACK 50 AUDIO
    TITLE "0:"
    INDEX 01 01:02:55
  TRACK 51 AUDIO
    TITLE "8:cjc040_4013"
    INDEX 01 01:03:37
  TRACK 52 AUDIO
    TITLE "0:"
    INDEX 01 01:06:28
  TRACK 53 AUDIO
    TITLE "9:cjc040_4014"
    INDEX 01 01:07:06
  TRACK 54 AUDIO
    TITLE "0:"
    INDEX 01 01:08:19
  TRACK 55 AUDIO
    TITLE "7:cjc040_4015"
    INDEX 01 01:09:73
  TRACK 56 AUDIO
    TITLE "0:"
    INDEX 01 01:11:27
  TRACK 57 AUDIO
    TITLE "8:cjc040_4016"
    INDEX 01 01:12:07
  TRACK 58 AUDIO
    TITLE "0:"
    INDEX 01 01:13:30
  TRACK 59 AUDIO
    TITLE "9:cjc040_4017"
    INDEX 01 01:14:12
  TRACK 60 AUDIO
    TITLE "0:"
    INDEX 01 01:15:42
  TRACK 61 AUDIO
    TITLE "7:cjc040_4018"
    INDEX 01 01:17:24
  TRACK 62 AUDIO
    TITLE "0:"
    INDEX 01 01:18:25
  TRACK 63 AUDIO
    TITLE "8:cjc040_4019"
    INDEX 01 01:19:03
  TRACK 64 AUDIO
    TITLE "0:"
    INDEX 01 01:21:35
  TRACK 65 AUDIO
    TITLE "9:cjc040_4020"
    INDEX 01 01:22:07
  TRACK 66 AUDIO
    TITLE "0:"
    INDEX 01 01:23:09
  TRACK 67 AUDIO
    TITLE "7:cjc040_4021"
    INDEX 01 01:24:69
  TRACK 68 AUDIO
    TITLE "0:"
    INDEX 01 01:26:13
  TRACK 69 AUDIO
    TITLE "8:cjc040_4022"
    INDEX 01 01:26:68
  TRACK 70 AUDIO
    TITLE "0:"
    INDEX 01 01:29:48
  TRACK 71 AUDIO
    TITLE "9:cjc040_4023"
    INDEX 01 01:30:24
  TRACK 72 AUDIO
    TITLE "0:"
    INDEX 01 01:31:45
  TRACK 73 AUDIO
    TITLE "7:cjc040_4024"
    INDEX 01 01:33:29
  TRACK 74 AUDIO
    TITLE "0:"
    INDEX 01 01:34:42
  TRACK 75 AUDIO
    TITLE "8:cjc040_4025"
    INDEX 01 01:35:24
  TRACK 76 AUDIO
    TITLE "0:"
    INDEX 01 01:39:49
  TRACK 77 AUDIO
    TITLE "9:cjc040_4026"
    INDEX 01 01:40:35
  TRACK 78 AUDIO
    TITLE "0:"
    INDEX 01 01:41:46
  TRACK 79 AUDIO
    TITLE "7:cjc040_4027"
    INDEX 01 01:43:27
  TRACK 80 AUDIO
    TITLE "0:"
    INDEX 01 01:44:38
  TRACK 81 AUDIO
    TITLE "8:cjc040_4028"
    INDEX 01 01:45:18
  TRACK 82 AUDIO
    TITLE "0:"
    INDEX 01 01:46:49
  TRACK 83 AUDIO
    TITLE "9:cjc040_4029"
    INDEX 01 01:47:29
  TRACK 84 AUDIO
    TITLE "0:"
    INDEX 01 01:48:40
  TRACK 85 AUDIO
    TITLE "7:cjc040_4030"
    INDEX 01 01:50:21
  TRACK 86 AUDIO
    TITLE "0:"
    INDEX 01 01:51:42
  TRACK 87 AUDIO
    TITLE "8:cjc040_4031"
    INDEX 01 01:52:18
  TRACK 88 AUDIO
    TITLE "0:"
    INDEX 01 01:53:55
  TRACK 89 AUDIO
    TITLE "9:cjc040_4032"
    INDEX 01 01:54:31
  TRACK 90 AUDIO
    TITLE "0:"
    INDEX 01 01:55:52
  TRACK 91 AUDIO
    TITLE "7:cjc040_4033"
    INDEX 01 01:57:29
  TRACK 92 AUDIO
    TITLE "0:"
    INDEX 01 01:58:54
  TRACK 93 AUDIO
    TITLE "8:cjc040_4034"
    INDEX 01 01:59:36
  TRACK 94 AUDIO
    TITLE "0:"
    INDEX 01 02:02:07
  TRACK 95 AUDIO
    TITLE "9:cjc040_4035"
    INDEX 01 02:02:60
  TRACK 96 AUDIO
    TITLE "0:"
    INDEX 01 02:04:13
  TRACK 97 AUDIO
    TITLE "7:cjc040_4036"
    INDEX 01 02:06:01
  TRACK 98 AUDIO
    TITLE "0:"
    INDEX 01 02:07:10
  TRACK 99 AUDIO
    TITLE "8:cjc040_4037"
    INDEX 01 02:07:65
  TRACK 100 AUDIO
    TITLE "0:"
    INDEX 01 02:11:04
  TRACK 101 AUDIO
    TITLE "9:cjc040_4038"
    INDEX 01 02:11:55
  TRACK 102 AUDIO
    TITLE "0:"
    INDEX 01 02:12:66
  TRACK 103 AUDIO
    TITLE "7:cjc040_4039"
    INDEX 01 02:14:47
  TRACK 104 AUDIO
    TITLE "0:"
    INDEX 01 02:15:60
  TRACK 105 AUDIO
    TITLE "8:cjc040_4040"
    INDEX 01 02:16:38
  TRACK 106 AUDIO
    TITLE "0:"
    INDEX 01 02:20:73
  TRACK 107 AUDIO
    TITLE "9:cjc040_4041"
    INDEX 01 02:21:49
  TRACK 108 AUDIO
    TITLE "0:"
    INDEX 01 02:22:62
